:SAMPLES-PER-SECOND 30
:FULLY-SPECIFIED
:DEGREES
104
root  -39.0611 39.168 -23.055 -150.834 -72.4201 172.646
RightUpLeg  -52.6049 -27.4061 18.3781
RightLeg  17.249 9.75157 5.53583
RightFoot  10.8937 2.52124 -12.3914
RightToes  0.000482159 0.542163 -0.142577
Spine  53.8699 -4.72646 9.83856
Spine1  8.16264 1.08733 -2.46025
HEad  -32.0887 -14.4807 9.75174
LeftShoulder1  10.4549 -23.1344 -33.0896
LeftArm  -21.2226 -33.5113 -31.7117
LeftForeArm  -8.88145 -36.161 -8.70419
LeftHand  -0.25398 0.0180481 5.50724
RightShoulder  3.1213 11.252 14.2956
RightArm  -28.7355 38.8651 15.1364
RightForeArm  -23.5499 40.4711 10.8716
RightHand  -0.258687 -7.85839 8.87733
LeftUpLeg  -51.0255 26.5302 -23.5539
LeftLeg  23.1936 2.65655 1.58605
LeftFoot  0.691158 -0.81661 7.69993
LeftToes  1.06247e-005 4.65855e-005 -8.18504e-006
105
root  -39.1134 39.4038 -22.5241 -154.223 -70.8536 172.656
RightUpLeg  -45.2547 -23.7964 10.1455
RightLeg  14.2727 4.9566 6.35789
RightFoot  12.1435 2.27023 -10.4789
RightToes  0.000482159 0.542163 -0.142577
Spine  52.4587 -4.63232 9.15651
Spine1  7.80602 0.451184 -2.01172
HEad  -30.7298 -15.2314 9.95616
LeftShoulder1  10.7956 -21.985 -36.1637
LeftArm  -17.4395 -27.2293 -30.9675
LeftForeArm  -7.25498 -40.8212 -10.1118
LeftHand  -0.25398 0.0180481 5.50724
RightShoulder  3.37145 10.9182 16.7283
RightArm  -24.3521 33.4782 19.9072
RightForeArm  -21.7105 44.6877 12.395
RightHand  -0.329021 -8.83922 8.45493
LeftUpLeg  -46.117 23.8228 -19.2816
LeftLeg  23.7353 4.86224 2.67987
LeftFoot  2.51009 -0.786671 6.37145
LeftToes  1.06247e-005 4.65855e-005 -8.18504e-006
106
root  -39.1907 39.5905 -21.9967 -158.372 -69.0683 173.108
RightUpLeg  -38.4776 -18.7643 3.02317
RightLeg  11.5964 -0.434256 6.94346
RightFoot  13.0754 1.96329 -8.63271
RightToes  0.000482159 0.542163 -0.142577
Spine  50.5839 -4.34417 8.60487
Spine1  8.37521 -0.00379356 -1.67928
HEad  -29.6897 -16.3308 10.5821
LeftShoulder1  11.1056 -21.2267 -38.6495
LeftArm  -15.5534 -21.5515 -29.8303
LeftForeArm  -3.873 -45.7633 -11.7726
LeftHand  -0.25398 0.0180481 5.50724
RightShoulder  3.68487 10.6903 19.5186
RightArm  -21.908 27.3941 22.67
RightForeArm  -19.6256 48.7971 14.1356
RightHand  -0.335094 -9.14179 7.90235
LeftUpLeg  -40.7039 17.8321 -13.0561
LeftLeg  25.4161 5.96164 3.41681
LeftFoot  3.76145 -0.525301 3.77942
LeftToes  1.06247e-005 4.65855e-005 -8.18504e-006
107
root  -39.3015 39.6776 -21.4505 -163.171 -66.5679 174.28
RightUpLeg  -33.3147 -14.279 -1.11545
RightLeg  9.774 -3.3404 7.1789
RightFoot  13.8113 1.6098 -6.77451
RightToes  0.000482159 0.542163 -0.142577
Spine  49.0292 -3.95491 7.9931
Spine1  8.39142 -0.222811 -1.82029
HEad  -28.3205 -17.4507 11.0529
LeftShoulder1  11.0783 -20.2886 -40.2426
LeftArm  -14.3416 -15.7706 -28.8469
LeftForeArm  0.287631 -50.932 -13.8688
LeftHand  -0.25398 0.0180481 5.50724
RightShoulder  4.00331 10.6028 22.1104
RightArm  -20.188 20.6538 24.7103
RightForeArm  -17.3161 53.075 16.3387
RightHand  -0.305263 -9.04779 7.23959
LeftUpLeg  -35.9776 10.0286 -6.94673
LeftLeg  28.2715 4.20688 2.7741
LeftFoot  2.3359 -0.0457986 0.186296
LeftToes  1.06247e-005 4.65855e-005 -8.18504e-006
108
root  -39.4551 39.654 -20.8482 -167.357 -62.958 175.322
RightUpLeg  -30.0143 -11.5627 -2.73044
RightLeg  9.07001 -2.16398 7.23091
RightFoot  14.2434 1.15451 -4.64256
RightToes  0.000482159 0.542163 -0.142577
Spine  47.8379 -3.32968 7.20008
Spine1  7.34919 -0.0328614 -2.38555
HEad  -26.1519 -18.6626 10.8073
LeftShoulder1  10.9587 -19.3009 -41.6607
LeftArm  -12.951 -9.62062 -27.7593
LeftForeArm  4.12725 -56.0267 -16.5416
LeftHand  -0.25398 0.0180481 5.50724
RightShoulder  4.25865 10.4408 24.3905
RightArm  -18.6687 13.2444 26.269
RightForeArm  -14.1994 57.5309 19.1823
RightHand  -0.321168 -9.29171 7.18392
LeftUpLeg  -32.325 2.62183 -2.72016
LeftLeg  31.9545 0.268619 0.514587
LeftFoot  -1.58039 0.287446 -3.27276
LeftToes  1.06247e-005 4.65855e-005 -8.18504e-006
109
root  -39.6664 39.5856 -20.1811 -171.238 -58.4606 176.214
RightUpLeg  -27.3188 -9.95602 -3.20101
RightLeg  8.64843 0.808393 7.23723
RightFoot  14.4162 0.69647 -2.60531
RightToes  0.000482159 0.542163 -0.142577
Spine  45.9135 -2.62194 6.50213
Spine1  7.24256 0.437491 -3.16823
HEad  -23.8279 -19.6861 10.2295
LeftShoulder1  10.9548 -18.568 -43.1361
LeftArm  -12.1605 -4.16166 -26.4543
LeftForeArm  7.74213 -60.6408 -19.7992
LeftHand  -0.25398 0.0180481 5.50724
RightShoulder  4.52446 10.4712 26.3044
RightArm  -17.9636 6.4156 27.1674
RightForeArm  -10.5678 61.4753 22.4176
RightHand  -0.392999 -10.062 7.60373
LeftUpLeg  -28.4733 -3.36501 -0.411518
LeftLeg  35.4377 -4.0513 -2.73052
LeftFoot  -5.57417 0.300491 -5.20482
LeftToes  1.06247e-005 4.65855e-005 -8.18504e-006
110
root  -39.9401 39.5114 -19.4874 -174.96 -53.0565 177.122
RightUpLeg  -24.6255 -8.69157 -3.01662
RightLeg  7.74715 3.7352 7.13546
RightFoot  14.6739 0.198276 -0.425082
RightToes  0.000482159 0.542163 -0.142577
Spine  43.7575 -2.13539 6.01583
Spine1  7.32446 1.09792 -4.75341
HEad  -20.8598 -20.484 9.96123
LeftShoulder1  10.807 -17.9439 -43.8376
LeftArm  -12.4087 1.18797 -25.5304
LeftForeArm  12.2591 -65.0513 -24.0437
LeftHand  -0.25398 0.0180481 5.50724
RightShoulder  4.88692 10.6847 28.4428
RightArm  -17.4291 0.774468 27.675
RightForeArm  -7.34469 64.7039 25.9024
RightHand  -0.444391 -10.9055 7.37537
LeftUpLeg  -23.6061 -7.73302 0.274849
LeftLeg  37.1169 -7.23095 -5.45494
LeftFoot  -8.80066 0.161057 -4.64529
LeftToes  1.06247e-005 4.65855e-005 -8.18504e-006
111
root  -40.2515 39.4683 -18.8182 -178.23 -46.5667 177.926
RightUpLeg  -21.5325 -7.53352 -2.40598
RightLeg  5.37669 7.97775 6.95008
RightFoot  15.0429 -0.871741 4.1449
RightToes  0.000482159 0.542163 -0.142577
Spine  41.4382 -1.58433 5.32567
Spine1  7.29952 1.96259 -6.80017
HEad  -17.4157 -21.3714 9.85146
LeftShoulder1  10.5028 -17.2912 -43.9539
LeftArm  -13.5184 6.46657 -24.9618
LeftForeArm  17.8758 -69.0891 -29.6131
LeftHand  -0.25398 0.0180481 5.50724
RightShoulder  5.18627 10.7288 30.4838
RightArm  -16.6998 -3.23136 28.3446
RightForeArm  -4.33887 67.2775 29.4943
RightHand  -0.402806 -11.2161 6.1343
LeftUpLeg  -17.9453 -9.92544 -0.390784
LeftLeg  35.8289 -7.54733 -5.48336
LeftFoot  -12.0408 0.0616165 -2.20002
LeftToes  1.06247e-005 4.65855e-005 -8.18504e-006
112
root  -40.5241 39.4588 -18.2068 179.685 -39.24 178.029
RightUpLeg  -18.1503 -6.61715 -2.06098
RightLeg  0.863201 14.0836 6.26032
RightFoot  14.385 -2.89296 13.0993
RightToes  0.000482159 0.542163 -0.142577
Spine  38.5977 -0.595172 3.48345
Spine1  7.39074 2.76765 -8.29282
HEad  -14.378 -22.2997 9.65724
LeftShoulder1  10.1986 -16.5686 -44.2374
LeftArm  -15.1154 11.2771 -24.1591
LeftForeArm  24.1143 -72.4907 -36.8525
LeftHand  -0.25398 0.0180481 5.50724
RightShoulder  5.32666 10.5441 31.9734
RightArm  -15.8843 -5.48587 29.5639
RightForeArm  -0.204256 69.3173 32.9303
RightHand  -0.35659 -11.1434 5.36063
LeftUpLeg  -13.0888 -8.70315 -1.97834
LeftLeg  32.5888 -4.69374 -2.89009
LeftFoot  -14.7422 0.0946313 0.309588
LeftToes  1.06247e-005 4.65855e-005 -8.18504e-006
113
root  -40.6603 39.4255 -17.6452 178.844 -32.0234 177.164
RightUpLeg  -15.1863 -6.48596 -2.66132
RightLeg  -4.43708 16.9798 5.13135
RightFoot  11.4263 -4.82926 24.1855
RightToes  0.000482159 0.542163 -0.142577
Spine  35.3482 0.509732 -0.0565901
Spine1  7.33763 2.97102 -8.7763
HEad  -12.3832 -22.9509 9.90664
LeftShoulder1  9.83308 -15.7743 -44.4188
LeftArm  -17.0026 15.6808 -23.0792
LeftForeArm  32.4944 -75.4331 -47.1695
LeftHand  -0.25398 0.0180481 5.50724
RightShoulder  5.43032 10.4447 32.9865
RightArm  -15.211 -6.49895 31.3971
RightForeArm  5.61383 70.9972 36.143
RightHand  -0.461105 -11.6672 6.6264
LeftUpLeg  -10.5712 -3.35054 -3.65903
LeftLeg  30.1654 -1.74818 -0.725021
LeftFoot  -15.5567 0.164248 1.97693
LeftToes  1.06247e-005 4.65855e-005 -8.18504e-006
114
root  -40.6325 39.3464 -17.0959 178.337 -25.56 175.955
RightUpLeg  -13.4364 -7.0078 -4.01207
RightLeg  -6.63647 10.2779 5.86818
RightFoot  6.26428 -4.9547 31.4431
RightToes  0.000482159 0.542163 -0.142577
Spine  32.219 1.11073 -4.26662
Spine1  6.965 2.53991 -8.77323
HEad  -11.3519 -23.5738 11.2129
LeftShoulder1  9.33633 -15.0597 -43.7683
LeftArm  -18.9329 19.8756 -22.0988
LeftForeArm  46.0102 -77.7992 -62.3957
LeftHand  -0.25398 0.0180481 5.50724
RightShoulder  5.59729 10.5473 33.8859
RightArm  -14.8014 -6.96691 33.5238
RightForeArm  11.9186 72.4994 39.5671
RightHand  -0.747315 -13.23 9.23734
LeftUpLeg  -9.9091 4.67839 -4.61568
LeftLeg  29.6948 -1.7411 -0.708148
LeftFoot  -14.9497 0.176469 2.75137
LeftToes  1.06247e-005 4.65855e-005 -8.18504e-006
115
root  -40.5174 39.4037 -16.5103 177.486 -19.2688 175.438
RightUpLeg  -11.7406 -7.32234 -4.69556
RightLeg  -7.36033 -5.46755 8.34417
RightFoot  1.53635 -3.52084 30.3581
RightToes  0.000482159 0.542163 -0.142577
Spine  29.6273 1.2623 -7.04003
Spine1  6.83701 2.14073 -8.84581
HEad  -10.7503 -24.6398 13.0498
LeftShoulder1  8.92219 -14.6546 -42.7049
LeftArm  -20.4976 23.6476 -21.0685
LeftForeArm  62.4962 -78.9632 -79.8925
LeftHand  -0.25398 0.0180481 5.50724
RightShoulder  5.7658 10.6357 34.8185
RightArm  -14.4612 -7.26112 35.3721
RightForeArm  17.0999 73.8348 43.5662
RightHand  -1.03571 -15.0142 10.7608
LeftUpLeg  -9.1266 12.3387 -4.36717
LeftLeg  28.8137 -3.05385 -1.44527
LeftFoot  -13.7906 0.142181 2.76095
LeftToes  1.06247e-005 4.65855e-005 -8.18504e-006
